<?xml version="1.0" standalone="no"?>
<svg xmlns:xlink="http://www.w3.org/1999/xlink" id="wave" style="transform:rotate(0deg); transition: 0.3s" viewBox="0 0 1440 320" version="1.1" xmlns="http://www.w3.org/2000/svg"><defs><linearGradient id="sw-gradient-0" x1="0" x2="0" y1="1" y2="0"><stop stop-color="#2c3333" offset="0%"/><stop stop-color="#2c3333" offset="100%"/></linearGradient></defs><path style="transform:translate(0, 0px); opacity:1" fill="url(#sw-gradient-0)"
 d="M0,64L40,64C80,64,160,64,240,101.3C320,139,400,213,480,218.7C560,224,640,160,720,144C800,128,880,160,960,181.3C1040,203,1120,213,1200,213.3C1280,213,1360,203,1440,170.7C1520,139,1600,85,1680,96C1760,107,1840,181,1920,176C2000,171,2080,85,2160,48C2240,11,2320,21,2400,26.7C2480,32,2560,32,2640,64C2720,96,2800,160,2880,202.7C2960,245,3040,267,3120,266.7C3200,267,3280,245,3360,245.3C3440,245,3520,267,3600,266.7C3680,267,3760,245,3840,229.3C3920,213,4000,203,4080,197.3C4160,192,4240,192,4320,208C4400,224,4480,256,4560,250.7C4640,245,4720,203,4800,170.7C4880,139,4960,117,5040,138.7C5120,160,5200,224,5280,213.3C5360,203,5440,117,5520,69.3C5600,21,5680,11,5720,5.3L5760,0L5760,320L5720,320C5680,320,5600,320,5520,320C5440,320,5360,320,5280,320C5200,320,5120,320,5040,320C4960,320,4880,320,4800,320C4720,320,4640,320,4560,320C4480,320,4400,320,4320,320C4240,320,4160,320,4080,320C4000,320,3920,320,3840,320C3760,320,3680,320,3600,320C3520,320,3440,320,3360,320C3280,320,3200,320,3120,320C3040,320,2960,320,2880,320C2800,320,2720,320,2640,320C2560,320,2480,320,2400,320C2320,320,2240,320,2160,320C2080,320,2000,320,1920,320C1840,320,1760,320,1680,320C1600,320,1520,320,1440,320C1360,320,1280,320,1200,320C1120,320,1040,320,960,320C880,320,800,320,720,320C640,320,560,320,480,320C400,320,320,320,240,320C160,320,80,320,40,320L0,320Z"/></svg>